<svg width="75" height="45" viewBox="0 0 75 45" fill="none" xmlns="http://www.w3.org/2000/svg">
<path d="M11.0485 24.216L19.4913 0.0971222H22.0971L11.0485 31.5805L0 0.0971222H2.60399L11.0485 24.216Z" fill="white"/>
<path d="M35.1646 28.5558C33.2184 30.5434 30.8822 31.5372 28.1578 31.5372C25.4334 31.5372 23.2463 30.5883 21.3306 28.6888C19.4149 26.7911 18.457 24.5357 18.457 21.9245C18.457 19.3133 19.4149 16.9861 21.3306 15.1171C23.2463 13.2481 25.5214 12.3136 28.1578 12.3136C30.7941 12.3136 33.2184 13.3074 35.1646 15.295L37.8585 12.4466V31.3575L35.1646 28.554V28.5558ZM28.1578 14.7613C26.1216 14.7613 24.4072 15.4514 23.0145 16.8297C21.6217 18.2099 20.9262 19.9082 20.9262 21.9245C20.9262 23.9409 21.6235 25.6391 23.0145 27.0193C24.4072 28.3995 26.1198 29.0877 28.1578 29.0877C30.1957 29.0877 31.8706 28.3905 33.2777 26.9959C34.6848 25.6014 35.3893 23.9103 35.3893 21.9227C35.3893 19.9351 34.6848 18.2441 33.2777 16.8495C31.8706 15.455 30.1633 14.7577 28.1578 14.7577V14.7613Z" fill="white"/>
<path d="M32.6057 39.7555C33.5042 40.7439 34.6562 41.2381 36.0633 41.2381C37.3213 41.2381 38.4139 40.8032 39.3412 39.9352C40.2685 39.0672 40.734 37.944 40.734 36.5674V12.2689H43.205V36.5674C43.205 38.5442 42.5077 40.2281 41.1167 41.6208C39.724 43.0136 38.0401 43.7091 36.0633 43.7091C33.9068 43.7091 32.1259 42.9147 30.7188 41.3279L32.6057 39.7555Z" fill="white"/>
<path d="M55.6884 12.7629L54.5652 14.9644C54.2057 14.8458 53.7708 14.7847 53.2623 14.7847C51.8839 14.7847 50.7535 15.2483 49.8712 16.1774C48.987 17.1065 48.5467 18.2135 48.5467 19.5002V31.5372H46.0757V12.8078L48.1423 14.4702C49.5189 13.0325 51.2262 12.3136 53.2623 12.3136C54.1608 12.3136 54.9695 12.4628 55.6866 12.7629H55.6884Z" fill="white"/>
<path d="M72.3064 28.5559C70.3601 30.5435 68.0239 31.5373 65.2995 31.5373C62.5751 31.5373 60.388 30.5885 58.4723 28.6889C56.5566 26.7912 55.5988 24.5358 55.5988 21.9247C55.5988 19.3135 56.5566 16.9862 58.4723 15.1173C60.388 13.2483 62.6631 12.3138 65.2995 12.3138C67.9358 12.3138 70.3601 13.3076 72.3064 15.2952L75.0002 12.2689V31.5373L72.3064 28.5559ZM65.2995 14.7614C63.2634 14.7614 61.5489 15.4515 60.1562 16.8299C58.7634 18.2101 58.068 19.9083 58.068 21.9247C58.068 23.941 58.7652 25.6411 60.1562 27.0194C61.5489 28.3996 63.2616 29.0879 65.2995 29.0879C67.3374 29.0879 69.0123 28.3906 70.4194 26.9961C71.8265 25.6015 72.531 23.9105 72.531 21.9229C72.531 19.9353 71.8265 18.2442 70.4194 16.8497C69.0123 15.4551 67.305 14.7578 65.2995 14.7578V14.7614Z" fill="white"/>
<path d="M46.0757 39.3456H49.3158L50.2018 36.6033L51.1579 40.6827L52.2864 37.8379L53.1814 39.0078L54.425 33.8878L55.7602 41.6172L56.7828 36.6931L57.7784 39.3456H74.8795" stroke="white" stroke-miterlimit="10"/>
<path d="M41.9594 0V0.197681L41.8606 0.384579L41.7833 0.370202L41.9594 0Z" fill="white"/>
<path d="M41.7833 0.370193L41.9594 0.517555V0.463643L41.8624 0.38457L41.7833 0.370193Z" fill="white"/>
<path d="M41.9595 0.264305L41.8948 0.375725L41.9595 0.418855V0.264305Z" fill="white"/>
<path d="M41.824 0.458359C41.824 0.458359 41.8671 0.75488 41.8455 1.06398C41.8455 1.06398 41.8455 1.42699 41.7467 1.64804H41.8348L41.9336 1.51685V0.546416L41.824 0.458359Z" fill="white"/>
<path d="M41.9605 1.54187L41.8724 1.65149H41.9605V1.54187Z" fill="white"/>
<path d="M41.9605 1.7952L41.8724 1.68378H41.9605V1.7952Z" fill="white"/>
<path d="M41.7404 1.68378H41.8284L41.938 1.82754V2.54279H41.7511C41.7511 2.54279 41.8176 2.35589 41.8069 1.99288C41.8069 1.99288 41.7961 1.7952 41.7404 1.68557V1.68378Z" fill="white"/>
<path d="M41.4325 0.0125351C41.4325 0.0125351 41.5098 0.217404 41.4325 0.375549C41.4325 0.375549 41.3499 0.52291 41.1576 0.594794L41.2133 0.682852C41.2133 0.682852 41.5763 0.495954 41.5979 0.287491C41.5979 0.287491 41.6302 0.0898102 41.4325 0.0125351Z" fill="white"/>
<path d="M41.124 0.749413C41.124 0.749413 41.212 0.693703 41.1563 0.63979C41.1563 0.63979 41.0575 0.562515 40.9371 0.63979C40.9371 0.63979 40.8706 0.6955 40.9479 0.749413C40.9479 0.749413 40.991 0.826688 40.9155 0.781761C40.9155 0.781761 40.8059 0.693703 40.6621 0.792544C40.6621 0.792544 40.5184 0.902166 40.619 1.02437C40.619 1.02437 40.6513 1.05312 40.7178 1.04593C40.7178 1.04593 40.7538 1.09446 40.6855 1.08906C40.6855 1.08906 40.477 1.02257 40.344 1.26518C40.344 1.26518 40.2344 1.47364 40.4986 1.54014C40.4986 1.54014 40.5651 1.57608 40.4986 1.58327C40.4986 1.58327 40.1913 1.51677 40.1571 1.82587C40.1571 1.82587 40.1248 2.04512 40.3764 2.09005C40.3764 2.09005 40.4429 2.1224 40.3764 2.13318C40.3764 2.13318 40.0134 2.1224 40.0242 2.54112C40.0242 2.54112 40.0349 2.82686 40.2991 2.88257C40.2991 2.88257 40.5525 2.91491 40.619 2.65074C40.619 2.65074 40.3225 2.7388 40.3225 2.49619C40.3225 2.49619 40.3225 2.365 40.5202 2.35242C40.5202 2.35242 40.6513 2.34164 40.7843 2.56089L40.8508 2.68129L40.982 2.63816C40.982 2.63816 40.6621 2.25358 40.6855 1.76837C40.6855 1.76837 40.6531 1.20767 41.1258 0.745819L41.124 0.749413Z" fill="white"/>
<path d="M41.6182 0.341331C41.6182 0.341331 41.5625 0.517447 41.3648 0.62707C41.3648 0.62707 40.9569 0.792403 40.7934 1.36388C40.7934 1.36388 40.5292 1.95872 41.0126 2.61825L41.1564 2.59669C41.1564 2.59669 40.8922 2.35408 40.8922 1.92457C40.8922 1.92457 40.8814 1.44115 41.2552 1.44115C41.2552 1.44115 41.4205 1.43037 41.487 1.62805C41.487 1.62805 41.5302 1.75924 41.4762 1.88144C41.4762 1.88144 41.6739 1.82573 41.6847 1.5957C41.6847 1.5957 41.6955 1.29918 41.4313 1.23269C41.4313 1.23269 41.124 1.22191 41.1564 1.02423C41.1564 1.02423 41.1456 0.914605 41.3756 0.716925C41.3756 0.716925 41.5949 0.551592 41.6182 0.343129V0.341331Z" fill="white"/>
<path d="M40.9363 1.98232C40.9363 1.98232 40.9363 2.35611 41.2112 2.59872L41.3766 2.57715C41.3766 2.57715 41.0243 2.36869 40.9363 1.98232Z" fill="white"/>
<path d="M41.9625 2.56447C41.9625 2.56447 41.2904 2.58603 40.807 2.71902C40.807 2.71902 40.6758 2.77473 40.7189 2.89513C40.7189 2.89513 40.7405 3.00476 40.8842 2.98319C40.8842 2.98319 41.4234 2.83942 41.9643 2.83942V2.56447H41.9625Z" fill="white"/>
<path d="M41.8179 2.88431L41.6867 2.96158L41.5986 2.89509C41.5986 2.89509 41.719 2.88431 41.8179 2.88431Z" fill="white"/>
<path d="M41.4439 3.07117C41.4439 3.07117 41.4655 2.98312 41.5212 2.96155C41.5212 2.96155 41.5536 2.97233 41.6093 3.02804L41.6758 2.97233C41.6758 2.97233 41.5985 2.90584 41.5104 2.89506C41.5104 2.89506 41.4331 2.91662 41.39 3.01546L41.4457 3.07117H41.4439Z" fill="white"/>
<path d="M41.4312 2.90601L41.3647 3.00485L41.2659 2.93835C41.2659 2.93835 41.3539 2.91679 41.4312 2.90601Z" fill="white"/>
<path d="M41.5424 3.00463C41.5424 3.00463 41.5208 2.99385 41.4992 3.01542C41.4992 3.01542 41.4777 3.04776 41.4777 3.10347C41.4777 3.10347 41.4777 3.12504 41.4992 3.1466L41.5549 3.22388C41.5549 3.22388 41.5334 3.18075 41.5657 3.11426C41.5657 3.11426 41.5981 3.08191 41.5873 3.04776C41.5873 3.04776 41.5765 3.0262 41.5442 3.00463H41.5424Z" fill="white"/>
<path d="M40.8933 3.01548C40.8933 3.01548 41.0479 2.95977 41.2132 2.94899C41.2132 2.94899 41.5762 3.08018 41.6427 3.6211L41.5546 3.63189C41.5546 3.63189 41.4774 3.312 41.3013 3.17003C41.3013 3.17003 41.1575 3.03884 40.9059 3.04963L40.8951 3.01728L40.8933 3.01548Z" fill="white"/>
<path d="M40.7392 3.22571C40.7392 3.22571 40.75 3.08194 40.9818 3.08194C40.9818 3.08194 41.2244 3.1035 41.3556 3.27962C41.3556 3.27962 41.4652 3.43417 41.521 3.64263L41.4545 3.65342C41.4545 3.65342 41.4221 3.54379 41.3664 3.4773C41.3664 3.4773 41.3233 3.44495 41.3341 3.49887C41.3341 3.49887 41.3898 3.58692 41.4221 3.6642L41.3556 3.68576C41.3556 3.68576 41.2568 3.4773 41.1022 3.36588L41.1454 3.32275C41.1454 3.32275 41.1561 3.2904 41.1238 3.30119C41.1238 3.30119 41.0681 3.40003 40.9153 3.38924C40.9153 3.38924 40.7284 3.37846 40.7392 3.22391V3.22571Z" fill="white"/>
<path d="M41.9613 2.88431C41.9613 2.88431 41.8499 2.88431 41.7187 2.98315C41.7187 2.98315 41.5983 3.06042 41.5875 3.23654C41.5875 3.23654 41.5875 3.30303 41.6307 3.42344C41.6307 3.42344 41.6738 3.52228 41.6738 3.61034H41.805C41.805 3.61034 41.7277 3.47915 41.7277 3.33538C41.7277 3.33538 41.7169 3.09277 41.9595 3.00471V2.88431H41.9613Z" fill="white"/>
<path d="M41.9649 3.6426V3.90677C41.9649 3.90677 41.6397 3.89599 41.3881 3.99483C41.3881 3.99483 41.2569 4.06132 41.2012 3.9517C41.2012 3.9517 41.1347 3.85286 41.2569 3.7648C41.2569 3.7648 41.5049 3.6444 41.9667 3.6444L41.9649 3.6426Z" fill="white"/>
<path d="M41.8834 3.59965H41.8403C41.8403 3.59965 41.7738 3.49003 41.7738 3.32469C41.7738 3.32469 41.7846 3.11623 41.9625 3.03896V3.11623C41.9625 3.11623 41.8187 3.19351 41.8187 3.36962C41.8187 3.36962 41.8187 3.49003 41.8852 3.60145L41.8834 3.59965Z" fill="white"/>
<path d="M41.9602 3.14842V3.29219C41.9602 3.29219 41.9278 3.29219 41.9278 3.33532V3.59949C41.9278 3.59949 41.8721 3.51144 41.8613 3.36767C41.8613 3.36767 41.8667 3.21312 41.9602 3.14842Z" fill="white"/>
<path d="M41.9601 0V0.199478L42.0661 0.373796L42.1398 0.37739L41.9601 0Z" fill="white"/>
<path d="M42.1398 0.377378L41.9601 0.517551V0.463638L42.0697 0.371986L42.1398 0.377378Z" fill="white"/>
<path d="M41.9601 0.264305L42.0266 0.375725L41.9601 0.418855V0.264305Z" fill="white"/>
<path d="M42.0984 0.458359C42.0984 0.458359 42.0553 0.75488 42.0768 1.06398C42.0768 1.06398 42.0768 1.42699 42.1757 1.64804H42.0876L41.9888 1.51685V0.546416L42.0984 0.458359Z" fill="white"/>
<path d="M41.9601 1.54187L42.0481 1.65149H41.9601V1.54187Z" fill="white"/>
<path d="M41.9601 1.7952L42.0481 1.68378H41.9601V1.7952Z" fill="white"/>
<path d="M42.18 1.68378H42.0919L41.9823 1.82754V2.54279H42.1692C42.1692 2.54279 42.1027 2.35589 42.1135 1.99288C42.1135 1.99288 42.1243 1.7952 42.18 1.68557V1.68378Z" fill="white"/>
<path d="M42.4888 0.0125351C42.4888 0.0125351 42.4116 0.199433 42.4888 0.375549C42.4888 0.375549 42.5661 0.519316 42.7638 0.594794L42.7081 0.682852C42.7081 0.682852 42.3451 0.495954 42.3235 0.287491C42.3235 0.287491 42.2912 0.0898102 42.4888 0.0125351Z" fill="white"/>
<path d="M42.7974 0.749413C42.7974 0.749413 42.7093 0.693703 42.7651 0.63979C42.7651 0.63979 42.8639 0.562515 42.9843 0.63979C42.9843 0.63979 43.0508 0.6955 42.9735 0.749413C42.9735 0.749413 42.9304 0.826688 43.0059 0.781761C43.0059 0.781761 43.1155 0.693703 43.2593 0.792544C43.2593 0.792544 43.403 0.902166 43.3024 1.02437C43.3024 1.02437 43.2593 1.04593 43.2035 1.04593C43.2035 1.04593 43.1712 1.08906 43.2359 1.08906C43.2359 1.08906 43.4444 1.02257 43.5773 1.26518C43.5773 1.26518 43.687 1.47364 43.4228 1.54014C43.4228 1.54014 43.3563 1.5617 43.4228 1.58327C43.4228 1.58327 43.7301 1.51677 43.7642 1.82587C43.7642 1.82587 43.7966 2.04512 43.545 2.09005C43.545 2.09005 43.4785 2.1224 43.545 2.13318C43.545 2.13318 43.908 2.1224 43.8972 2.54112C43.8972 2.54112 43.8864 2.82686 43.6223 2.88257C43.6223 2.88257 43.3689 2.91491 43.3024 2.65074C43.3024 2.65074 43.5989 2.7388 43.5989 2.49619C43.5989 2.49619 43.5989 2.365 43.4012 2.35242C43.4012 2.35242 43.27 2.34164 43.1371 2.56089L43.0706 2.68129L42.9394 2.63816C42.9394 2.63816 43.2593 2.25358 43.2359 1.76837C43.2359 1.76837 43.2682 1.20767 42.7956 0.745819L42.7974 0.749413Z" fill="white"/>
<path d="M42.302 0.341331C42.302 0.341331 42.3577 0.517447 42.5554 0.62707C42.5554 0.62707 42.9634 0.792403 43.1269 1.36388C43.1269 1.36388 43.3911 1.95872 42.9077 2.61825L42.7639 2.59669C42.7639 2.59669 43.0281 2.35408 43.0281 1.92457C43.0281 1.92457 43.0388 1.44115 42.665 1.44115C42.665 1.44115 42.4997 1.43037 42.4332 1.62805C42.4332 1.62805 42.3901 1.75924 42.444 1.88144C42.444 1.88144 42.2463 1.82573 42.2355 1.5957C42.2355 1.5957 42.2248 1.29918 42.4889 1.23269C42.4889 1.23269 42.7962 1.22191 42.7639 1.02423C42.7639 1.02423 42.7747 0.914605 42.5446 0.716925C42.5446 0.716925 42.3254 0.551592 42.302 0.343129V0.341331Z" fill="white"/>
<path d="M42.9847 1.98232C42.9847 1.98232 42.9847 2.35611 42.7098 2.59872L42.5444 2.57715C42.5444 2.57715 42.8967 2.36869 42.9847 1.98232Z" fill="white"/>
<path d="M41.9617 2.56447C41.9617 2.56447 42.632 2.58603 43.1154 2.71902C43.1154 2.71902 43.2466 2.77473 43.2035 2.89513C43.2035 2.89513 43.1819 3.00476 43.0381 2.98319C43.0381 2.98319 42.499 2.83942 41.9617 2.83942V2.56447Z" fill="white"/>
<path d="M42.1034 2.88431L42.2346 2.96158L42.3226 2.89509C42.3226 2.89509 42.2022 2.88431 42.1034 2.88431Z" fill="white"/>
<path d="M42.4785 3.07117C42.4785 3.07117 42.457 2.98312 42.4013 2.96155C42.4013 2.96155 42.3689 2.97233 42.3132 3.02804L42.2467 2.97233C42.2467 2.97233 42.324 2.90584 42.412 2.89506C42.412 2.89506 42.4893 2.91662 42.5324 3.01546L42.4767 3.07117H42.4785Z" fill="white"/>
<path d="M42.4871 2.90601L42.5536 3.00485L42.6524 2.93835C42.6524 2.93835 42.5643 2.91679 42.4871 2.90601Z" fill="white"/>
<path d="M42.3782 3.00463C42.3782 3.00463 42.3997 2.99385 42.4213 3.01542C42.4213 3.01542 42.4429 3.04776 42.4429 3.10347C42.4429 3.10347 42.4429 3.12504 42.4213 3.1466L42.3656 3.22388C42.3656 3.22388 42.3872 3.18075 42.3548 3.11426C42.3548 3.11426 42.3225 3.08191 42.3333 3.04776C42.3333 3.04776 42.344 3.0262 42.3764 3.00463H42.3782Z" fill="white"/>
<path d="M43.0278 3.01548C43.0278 3.01548 42.8733 2.95977 42.7079 2.94899C42.7079 2.94899 42.3449 3.08018 42.2784 3.6211L42.3665 3.63189C42.3665 3.63189 42.4438 3.312 42.6199 3.17003C42.6199 3.17003 42.7637 3.03884 43.0153 3.04963L43.026 3.01728L43.0278 3.01548Z" fill="white"/>
<path d="M43.1813 3.22571C43.1813 3.22571 43.1705 3.08194 42.9387 3.08194C42.9387 3.08194 42.6961 3.1035 42.5649 3.27962C42.5649 3.27962 42.4552 3.43417 42.3995 3.64263L42.466 3.65342C42.466 3.65342 42.4984 3.54379 42.5541 3.4773C42.5541 3.4773 42.5972 3.44495 42.5864 3.49887C42.5864 3.49887 42.5307 3.58692 42.4984 3.6642L42.5649 3.68576C42.5649 3.68576 42.6637 3.4773 42.8183 3.36588L42.7751 3.32275C42.7751 3.32275 42.7643 3.2904 42.7967 3.30119C42.7967 3.30119 42.8524 3.40003 43.0052 3.38924C43.0052 3.38924 43.1921 3.37846 43.1813 3.22391V3.22571Z" fill="white"/>
<path d="M41.9617 2.88431C41.9617 2.88431 42.0713 2.88431 42.2025 2.98315C42.2025 2.98315 42.3229 3.06042 42.3337 3.23654C42.3337 3.23654 42.3337 3.30303 42.2905 3.42344C42.2905 3.42344 42.2474 3.52228 42.2474 3.61034H42.1162C42.1162 3.61034 42.1935 3.47915 42.1935 3.33538C42.1935 3.33538 42.2043 3.09277 41.9635 3.00471V2.88431H41.9617Z" fill="white"/>
<path d="M41.9539 3.6426V3.90677C41.9539 3.90677 42.2774 3.89599 42.5308 3.99483C42.5308 3.99483 42.662 4.06132 42.7177 3.9517C42.7177 3.9517 42.7842 3.85286 42.662 3.7648C42.662 3.7648 42.414 3.6444 41.9521 3.6444L41.9539 3.6426Z" fill="white"/>
<path d="M42.0371 3.59965H42.0803C42.0803 3.59965 42.1468 3.49003 42.1468 3.3247C42.1468 3.3247 42.136 3.11624 41.9617 3.03716V3.11444C41.9617 3.11444 42.1036 3.19171 42.1036 3.36783C42.1036 3.36783 42.1036 3.48823 42.0371 3.59965Z" fill="white"/>
<path d="M41.9601 3.14683V3.2906C41.9601 3.2906 41.9942 3.2906 41.9942 3.33373V3.5979C41.9942 3.5979 42.0499 3.50985 42.0607 3.36608C42.0607 3.36608 42.0499 3.21153 41.9619 3.14503L41.9601 3.14683Z" fill="white"/>
<path d="M47.2478 5.29422H47.0501L46.9064 5.20617V5.12889L47.2478 5.29422Z" fill="white"/>
<path d="M46.8694 5.14501L46.7472 5.29956H46.8029L46.8694 5.2115V5.14501Z" fill="white"/>
<path d="M47.0004 5.29968L46.8908 5.23318L46.8458 5.29968H47.0004Z" fill="white"/>
<path d="M46.808 5.16118C46.808 5.16118 46.5114 5.20431 46.2023 5.18275C46.2023 5.18275 45.8393 5.18275 45.6183 5.08391V5.17197L45.7495 5.27081H46.7181L46.8062 5.16118H46.808Z" fill="white"/>
<path d="M45.7231 5.29954L45.6135 5.21149V5.29954H45.7231Z" fill="white"/>
<path d="M45.4702 5.29954L45.5798 5.21149V5.29954H45.4702Z" fill="white"/>
<path d="M45.5808 5.07854V5.16659L45.437 5.27622H44.7218V5.08932C44.7218 5.08932 44.9087 5.15581 45.2717 5.14503C45.2717 5.14503 45.4694 5.13425 45.579 5.07854H45.5808Z" fill="white"/>
<path d="M47.2534 4.77114C47.2534 4.77114 47.0665 4.84842 46.8904 4.77114C46.8904 4.77114 46.7467 4.69387 46.6712 4.49619L46.5831 4.5519C46.5831 4.5519 46.77 4.91491 46.9785 4.93647C46.9785 4.93647 47.1762 4.96882 47.2534 4.77114Z" fill="white"/>
<path d="M46.5171 4.46397C46.5171 4.46397 46.5728 4.55203 46.6267 4.49632C46.6267 4.49632 46.704 4.39748 46.6267 4.27708C46.6267 4.27708 46.571 4.21058 46.5171 4.28786C46.5171 4.28786 46.4398 4.33099 46.4848 4.25551C46.4848 4.25551 46.5728 4.14589 46.474 4.00212C46.474 4.00212 46.3643 3.85835 46.2421 3.95899C46.2421 3.95899 46.2206 4.00212 46.2206 4.05783C46.2206 4.05783 46.1774 4.09018 46.1774 4.02548C46.1774 4.02548 46.2439 3.81702 46.0013 3.68403C46.0013 3.68403 45.7929 3.57441 45.7264 3.83858C45.7264 3.83858 45.7048 3.90508 45.6832 3.83858C45.6832 3.83858 45.7497 3.53128 45.4406 3.49714C45.4406 3.49714 45.2214 3.46479 45.1765 3.71638C45.1765 3.71638 45.1441 3.78287 45.1333 3.71638C45.1333 3.71638 45.1441 3.35337 44.7254 3.36415C44.7254 3.36415 44.4397 3.37493 44.3839 3.63911C44.3839 3.63911 44.3516 3.8925 44.6158 3.95899C44.6158 3.95899 44.5277 3.66247 44.7703 3.66247C44.7703 3.66247 44.9015 3.66247 44.9141 3.86015C44.9141 3.86015 44.9249 3.99134 44.7056 4.12432L44.5852 4.19081L44.6283 4.322C44.6283 4.322 45.0129 4.00212 45.4981 4.02548C45.4981 4.02548 46.0588 3.99313 46.5207 4.46577L46.5171 4.46397Z" fill="white"/>
<path d="M46.9223 4.95822C46.9223 4.95822 46.7462 4.90251 46.6366 4.70483C46.6366 4.70483 46.4712 4.29688 45.8998 4.13335C45.8998 4.13335 45.3049 3.86918 44.6454 4.35259L44.667 4.49636C44.667 4.49636 44.9096 4.23219 45.3391 4.23219C45.3391 4.23219 45.8225 4.22141 45.8225 4.5952C45.8225 4.5952 45.8333 4.76054 45.6356 4.82703C45.6356 4.82703 45.5044 4.87016 45.3822 4.81625C45.3822 4.81625 45.4379 5.01393 45.6679 5.02471C45.6679 5.02471 45.9645 5.03549 46.0309 4.77132C46.0309 4.77132 46.0417 4.46401 46.2394 4.49636C46.2394 4.49636 46.349 4.48558 46.5467 4.71561C46.5467 4.71561 46.712 4.93485 46.9205 4.95822H46.9223Z" fill="white"/>
<path d="M45.2825 4.27526C45.2825 4.27526 44.9087 4.27526 44.6661 4.55022L44.6877 4.71555C44.6877 4.71555 44.8962 4.36332 45.2825 4.27526Z" fill="white"/>
<path d="M44.7007 5.29967C44.7007 5.29967 44.6791 4.62756 44.5462 4.14414C44.5462 4.14414 44.4904 4.01295 44.37 4.05608C44.37 4.05608 44.2604 4.07765 44.282 4.22142C44.282 4.22142 44.4258 4.76054 44.4258 5.30147H44.7007V5.29967Z" fill="white"/>
<path d="M44.382 5.15588L44.3047 5.02469L44.3712 4.93663C44.3712 4.93663 44.382 5.05704 44.382 5.15588Z" fill="white"/>
<path d="M44.1948 4.78216C44.1948 4.78216 44.2829 4.80373 44.3044 4.85944C44.3044 4.85944 44.2937 4.89178 44.238 4.94749L44.2937 5.01399C44.2937 5.01399 44.3602 4.93671 44.3709 4.84865C44.3709 4.84865 44.3494 4.77138 44.2505 4.72825L44.1948 4.78396V4.78216Z" fill="white"/>
<path d="M44.359 4.77138L44.2601 4.70489L44.3266 4.60605C44.3266 4.60605 44.3482 4.69411 44.359 4.77138Z" fill="white"/>
<path d="M44.2612 4.88092C44.2612 4.88092 44.272 4.85935 44.2505 4.83779C44.2505 4.83779 44.2181 4.81622 44.1624 4.81622C44.1624 4.81622 44.1408 4.81622 44.1193 4.83779L44.042 4.8935C44.042 4.8935 44.0851 4.87193 44.1516 4.90428C44.1516 4.90428 44.184 4.93663 44.2181 4.92585C44.2181 4.92585 44.2397 4.91506 44.2612 4.88272V4.88092Z" fill="white"/>
<path d="M44.2491 4.23227C44.2491 4.23227 44.3048 4.38682 44.3156 4.55215C44.3156 4.55215 44.1844 4.91517 43.6435 4.98166L43.6327 4.8936C43.6327 4.8936 43.9526 4.81633 44.0945 4.64021C44.0945 4.64021 44.2257 4.49644 44.2149 4.24485L44.2473 4.23407L44.2491 4.23227Z" fill="white"/>
<path d="M44.0403 4.07768C44.0403 4.07768 44.184 4.08846 44.184 4.32029C44.184 4.32029 44.1625 4.5629 43.9863 4.69409C43.9863 4.69409 43.8318 4.80371 43.6233 4.85942L43.6125 4.79293C43.6125 4.79293 43.7222 4.76058 43.7887 4.70487C43.7887 4.70487 43.821 4.66174 43.7671 4.67252C43.7671 4.67252 43.679 4.72823 43.6018 4.76058L43.5802 4.69409C43.5802 4.69409 43.7887 4.59525 43.9001 4.44069L43.9432 4.48383C43.9432 4.48383 43.9756 4.49461 43.9648 4.46226C43.9648 4.46226 43.8659 4.40655 43.8767 4.2538C43.8767 4.2538 43.8875 4.0669 44.0421 4.07768H44.0403Z" fill="white"/>
<path d="M44.3811 5.29968C44.3811 5.29968 44.3811 5.18826 44.2822 5.05707C44.2822 5.05707 44.2049 4.93666 44.0288 4.92588C44.0288 4.92588 43.9623 4.92588 43.8419 4.96901C43.8419 4.96901 43.7431 5.01214 43.655 5.01214V5.14333C43.655 5.14333 43.7862 5.06605 43.93 5.06605C43.93 5.06605 44.1726 5.05527 44.2607 5.29788H44.3811V5.29968Z" fill="white"/>
<path d="M43.6212 5.30487H43.3571C43.3571 5.30487 43.3678 4.9796 43.269 4.728C43.269 4.728 43.2025 4.59682 43.3121 4.54111C43.3121 4.54111 43.411 4.47461 43.499 4.59682C43.499 4.59682 43.6194 4.84482 43.6194 5.30667L43.6212 5.30487Z" fill="white"/>
<path d="M43.6663 5.22239V5.17926C43.6663 5.17926 43.776 5.11277 43.9413 5.11277C43.9413 5.11277 44.1498 5.12355 44.227 5.30147H44.1498C44.1498 5.30147 44.0725 5.1577 43.8964 5.1577C43.8964 5.1577 43.776 5.1577 43.6646 5.22419L43.6663 5.22239Z" fill="white"/>
<path d="M44.1172 5.29978H43.9734C43.9734 5.29978 43.9734 5.26744 43.9303 5.26744H43.6661C43.6661 5.26744 43.7542 5.21173 43.898 5.20094C43.898 5.20094 44.0525 5.20633 44.1172 5.29978Z" fill="white"/>
<path d="M47.2478 5.30503H47.0501L46.9064 5.39309V5.47036L47.2478 5.30503Z" fill="white"/>
<path d="M46.8694 5.45421L46.7472 5.29966H46.8029L46.8694 5.38772V5.45421Z" fill="white"/>
<path d="M47.0004 5.29966L46.8908 5.36615L46.8458 5.29966H47.0004Z" fill="white"/>
<path d="M46.808 5.43615C46.808 5.43615 46.5114 5.39302 46.2023 5.41458C46.2023 5.41458 45.8393 5.41458 45.6183 5.51342V5.42536L45.7495 5.32652H46.7181L46.8062 5.43615H46.808Z" fill="white"/>
<path d="M45.7231 5.29966L45.6135 5.38772V5.29966H45.7231Z" fill="white"/>
<path d="M45.4702 5.29966L45.5798 5.38772V5.29966H45.4702Z" fill="white"/>
<path d="M45.5808 5.51883V5.43077L45.437 5.32115H44.7218V5.50805C44.7218 5.50805 44.9087 5.44156 45.2717 5.45234C45.2717 5.45234 45.4694 5.46312 45.579 5.51883H45.5808Z" fill="white"/>
<path d="M47.2534 5.82799C47.2534 5.82799 47.0665 5.75071 46.8904 5.82799C46.8904 5.82799 46.7467 5.90526 46.6712 6.10295L46.5831 6.04724C46.5831 6.04724 46.77 5.68422 46.9785 5.66266C46.9785 5.66266 47.1762 5.63031 47.2534 5.82799Z" fill="white"/>
<path d="M46.5171 6.13525C46.5171 6.13525 46.5728 6.04719 46.6267 6.1029C46.6267 6.1029 46.704 6.20174 46.6267 6.32215C46.6267 6.32215 46.571 6.38864 46.5171 6.31136C46.5171 6.31136 46.4398 6.26823 46.4848 6.34371C46.4848 6.34371 46.5728 6.45333 46.474 6.5971C46.474 6.5971 46.3643 6.74087 46.2421 6.64023C46.2421 6.64023 46.2206 6.5971 46.2206 6.54139C46.2206 6.54139 46.1774 6.50904 46.1774 6.57374C46.1774 6.57374 46.2439 6.7822 46.0013 6.91519C46.0013 6.91519 45.7929 7.02481 45.7264 6.76064C45.7264 6.76064 45.7048 6.69414 45.6832 6.76064C45.6832 6.76064 45.7497 7.06794 45.4406 7.10209C45.4406 7.10209 45.2214 7.13443 45.1765 6.88284C45.1765 6.88284 45.1441 6.81635 45.1333 6.88284C45.1333 6.88284 45.1441 7.24585 44.7254 7.23507C44.7254 7.23507 44.4397 7.22429 44.3839 6.96011C44.3839 6.96011 44.3516 6.70672 44.6158 6.64023C44.6158 6.64023 44.5277 6.93675 44.7703 6.93675C44.7703 6.93675 44.9015 6.93675 44.9141 6.73907C44.9141 6.73907 44.9249 6.60788 44.7056 6.4749L44.5852 6.40841L44.6283 6.27722C44.6283 6.27722 45.0129 6.5971 45.4981 6.57374C45.4981 6.57374 46.0588 6.60609 46.5207 6.13345L46.5171 6.13525Z" fill="white"/>
<path d="M46.9223 5.64107C46.9223 5.64107 46.7462 5.69678 46.6366 5.89446C46.6366 5.89446 46.4712 6.3024 45.8998 6.46594C45.8998 6.46594 45.3049 6.73011 44.6454 6.24669L44.667 6.10292C44.667 6.10292 44.9096 6.3671 45.3391 6.3671C45.3391 6.3671 45.8225 6.37788 45.8225 6.00408C45.8225 6.00408 45.8333 5.83875 45.6356 5.77226C45.6356 5.77226 45.5044 5.72913 45.3822 5.78304C45.3822 5.78304 45.4379 5.58536 45.6679 5.57458C45.6679 5.57458 45.9645 5.5638 46.0309 5.82797C46.0309 5.82797 46.0417 6.13527 46.2394 6.10292C46.2394 6.10292 46.349 6.11371 46.5467 5.88368C46.5467 5.88368 46.712 5.66443 46.9205 5.64107H46.9223Z" fill="white"/>
<path d="M45.2825 6.3223C45.2825 6.3223 44.9087 6.3223 44.6661 6.04734L44.6877 5.88201C44.6877 5.88201 44.8962 6.23424 45.2825 6.3223Z" fill="white"/>
<path d="M44.7007 5.29966C44.7007 5.29966 44.6791 5.96998 44.5462 6.4534C44.5462 6.4534 44.4904 6.58458 44.37 6.54145C44.37 6.54145 44.2604 6.51989 44.282 6.37612C44.282 6.37612 44.4258 5.83699 44.4258 5.29966H44.7007Z" fill="white"/>
<path d="M44.382 5.44157L44.3047 5.57275L44.3712 5.66081C44.3712 5.66081 44.382 5.54041 44.382 5.44157Z" fill="white"/>
<path d="M44.1948 5.81709C44.1948 5.81709 44.2829 5.79553 44.3044 5.73982C44.3044 5.73982 44.2937 5.70747 44.238 5.65176L44.2937 5.58527C44.2937 5.58527 44.3602 5.66254 44.3709 5.7506C44.3709 5.7506 44.3494 5.82787 44.2505 5.871L44.1948 5.81529V5.81709Z" fill="white"/>
<path d="M44.359 5.82808L44.2601 5.89457L44.3266 5.99341C44.3266 5.99341 44.3482 5.90535 44.359 5.82808Z" fill="white"/>
<path d="M44.2612 5.71658C44.2612 5.71658 44.272 5.73814 44.2505 5.75971C44.2505 5.75971 44.2181 5.78127 44.1624 5.78127C44.1624 5.78127 44.1408 5.78127 44.1193 5.75971L44.042 5.704C44.042 5.704 44.0851 5.72556 44.1516 5.69321C44.1516 5.69321 44.184 5.66087 44.2181 5.67165C44.2181 5.67165 44.2397 5.68243 44.2612 5.71478V5.71658Z" fill="white"/>
<path d="M44.2491 6.3671C44.2491 6.3671 44.3048 6.21255 44.3156 6.04721C44.3156 6.04721 44.1844 5.6842 43.6435 5.61771L43.6327 5.70576C43.6327 5.70576 43.9526 5.78304 44.0945 5.95915C44.0945 5.95915 44.2257 6.10292 44.2149 6.35452L44.2473 6.3653L44.2491 6.3671Z" fill="white"/>
<path d="M44.0403 6.51985C44.0403 6.51985 44.184 6.50907 44.184 6.27724C44.184 6.27724 44.1625 6.03463 43.9863 5.90345C43.9863 5.90345 43.8318 5.79382 43.6233 5.73811L43.6125 5.80461C43.6125 5.80461 43.7222 5.83695 43.7887 5.89266C43.7887 5.89266 43.821 5.93579 43.7671 5.92501C43.7671 5.92501 43.679 5.8693 43.6018 5.83695L43.5802 5.90345C43.5802 5.90345 43.7887 6.00229 43.9001 6.15684L43.9432 6.11371C43.9432 6.11371 43.9756 6.10292 43.9648 6.13527C43.9648 6.13527 43.8659 6.19098 43.8767 6.34373C43.8767 6.34373 43.8875 6.53063 44.0421 6.51985H44.0403Z" fill="white"/>
<path d="M44.3811 5.29966C44.3811 5.29966 44.3811 5.40928 44.2822 5.54047C44.2822 5.54047 44.2049 5.66088 44.0288 5.67166C44.0288 5.67166 43.9623 5.67166 43.8419 5.62853C43.8419 5.62853 43.7431 5.5854 43.655 5.5854V5.45421C43.655 5.45421 43.7862 5.53149 43.93 5.53149C43.93 5.53149 44.1726 5.54227 44.2607 5.30146H44.3811V5.29966Z" fill="white"/>
<path d="M43.6212 5.29409H43.3571C43.3571 5.29409 43.3678 5.61757 43.269 5.87096C43.269 5.87096 43.2025 6.00215 43.3121 6.05786C43.3121 6.05786 43.411 6.12435 43.499 6.00215C43.499 6.00215 43.6194 5.75415 43.6194 5.2923L43.6212 5.29409Z" fill="white"/>
<path d="M43.6661 5.37693V5.42006C43.6661 5.42006 43.7758 5.48655 43.9411 5.48655C43.9411 5.48655 44.1496 5.47577 44.2286 5.30145H44.1514C44.1514 5.30145 44.0741 5.44342 43.898 5.44342C43.898 5.44342 43.7776 5.44342 43.6661 5.37693Z" fill="white"/>
<path d="M44.1172 5.29966H43.9734C43.9734 5.29966 43.9734 5.3338 43.9303 5.3338H43.6661C43.6661 5.3338 43.7542 5.38951 43.898 5.4003C43.898 5.4003 44.0525 5.38951 44.119 5.30146L44.1172 5.29966Z" fill="white"/>
<path d="M41.9648 10.5815V10.3839L42.0529 10.2401H42.1302L41.9648 10.5815Z" fill="white"/>
<path d="M42.1146 10.2023L41.9601 10.0801V10.1358L42.0481 10.2023H42.1146Z" fill="white"/>
<path d="M41.9601 10.3335L42.0266 10.2239L41.9601 10.1808V10.3335Z" fill="white"/>
<path d="M42.0984 10.1411C42.0984 10.1411 42.0553 9.84455 42.0768 9.53545C42.0768 9.53545 42.0768 9.17244 42.1757 8.95139H42.0876L41.9888 9.08258V10.0512L42.0984 10.1393V10.1411Z" fill="white"/>
<path d="M41.9601 9.05743L42.0481 8.94781H41.9601V9.05743Z" fill="white"/>
<path d="M41.9601 8.80411L42.0481 8.91373H41.9601V8.80411Z" fill="white"/>
<path d="M42.18 8.91378H42.0919L41.9823 8.77002V8.05477H42.1692C42.1692 8.05477 42.1027 8.24167 42.1135 8.60468C42.1135 8.60468 42.1243 8.80236 42.18 8.91199V8.91378Z" fill="white"/>
<path d="M42.4888 10.5868C42.4888 10.5868 42.4116 10.3999 42.4888 10.2238C42.4888 10.2238 42.5661 10.08 42.7638 10.0045L42.7081 9.91647C42.7081 9.91647 42.3451 10.1034 42.3235 10.3118C42.3235 10.3118 42.2912 10.5095 42.4888 10.5868Z" fill="white"/>
<path d="M42.7974 9.85004C42.7974 9.85004 42.7093 9.90575 42.7651 9.95966C42.7651 9.95966 42.8639 10.0369 42.9843 9.95966C42.9843 9.95966 43.0508 9.90395 42.9735 9.85004C42.9735 9.85004 42.9304 9.77276 43.0059 9.81769C43.0059 9.81769 43.1155 9.90575 43.2593 9.8069C43.2593 9.8069 43.403 9.69728 43.3024 9.57508C43.3024 9.57508 43.2593 9.55351 43.2035 9.55351C43.2035 9.55351 43.1712 9.51038 43.2359 9.51038C43.2359 9.51038 43.4444 9.57688 43.5773 9.33427C43.5773 9.33427 43.687 9.12581 43.4228 9.05931C43.4228 9.05931 43.3563 9.03775 43.4228 9.01618C43.4228 9.01618 43.7301 9.08267 43.7642 8.77357C43.7642 8.77357 43.7966 8.55433 43.545 8.5094C43.545 8.5094 43.4785 8.47705 43.545 8.46627C43.545 8.46627 43.908 8.47705 43.8972 8.05833C43.8972 8.05833 43.8864 7.77259 43.6223 7.71688C43.6223 7.71688 43.3689 7.68453 43.3024 7.94871C43.3024 7.94871 43.5989 7.86065 43.5989 8.10326C43.5989 8.10326 43.5989 8.23445 43.4012 8.24703C43.4012 8.24703 43.27 8.25781 43.1371 8.03856L43.0706 7.91816L42.9394 7.96129C42.9394 7.96129 43.2593 8.34587 43.2359 8.83108C43.2359 8.83108 43.2682 9.39178 42.7956 9.85363L42.7974 9.85004Z" fill="white"/>
<path d="M42.302 10.2561C42.302 10.2561 42.3577 10.0799 42.5554 9.97032C42.5554 9.97032 42.9634 9.80499 43.1269 9.23351C43.1269 9.23351 43.3911 8.63868 42.9077 7.97914L42.7639 8.00071C42.7639 8.00071 43.0281 8.24331 43.0281 8.67282C43.0281 8.67282 43.0388 9.15624 42.665 9.15624C42.665 9.15624 42.4997 9.16702 42.4332 8.96934C42.4332 8.96934 42.3901 8.83815 42.444 8.71595C42.444 8.71595 42.2463 8.77166 42.2355 9.00169C42.2355 9.00169 42.2248 9.29821 42.4889 9.3647C42.4889 9.3647 42.7962 9.37548 42.7639 9.57317C42.7639 9.57317 42.7747 9.68279 42.5446 9.88047C42.5446 9.88047 42.3254 10.0458 42.302 10.2543V10.2561Z" fill="white"/>
<path d="M42.9847 8.61724C42.9847 8.61724 42.9847 8.24344 42.7098 8.00083L42.5444 8.0224C42.5444 8.0224 42.8967 8.23086 42.9847 8.61724Z" fill="white"/>
<path d="M41.9587 8.03506C41.9587 8.03506 42.6308 8.01349 43.1142 7.88051C43.1142 7.88051 43.2454 7.8248 43.2023 7.70439C43.2023 7.70439 43.1807 7.59477 43.037 7.61634C43.037 7.61634 42.4978 7.7601 41.9569 7.7601V8.03506H41.9587Z" fill="white"/>
<path d="M42.1034 7.71508L42.2346 7.63781L42.3226 7.7043C42.3226 7.7043 42.2022 7.71508 42.1034 7.71508Z" fill="white"/>
<path d="M42.4785 7.52814C42.4785 7.52814 42.457 7.6162 42.4013 7.63777C42.4013 7.63777 42.3689 7.62699 42.3132 7.57128L42.2467 7.62699C42.2467 7.62699 42.324 7.69348 42.412 7.70426C42.412 7.70426 42.4893 7.6827 42.5324 7.58386L42.4767 7.52814H42.4785Z" fill="white"/>
<path d="M42.4871 7.69346L42.5536 7.59462L42.6524 7.66111C42.6524 7.66111 42.5643 7.68268 42.4871 7.69346Z" fill="white"/>
<path d="M42.3782 7.59473C42.3782 7.59473 42.3997 7.60552 42.4213 7.58395C42.4213 7.58395 42.4429 7.5516 42.4429 7.49589C42.4429 7.49589 42.4429 7.47433 42.4213 7.45276L42.3656 7.37549C42.3656 7.37549 42.3872 7.41862 42.3548 7.48511C42.3548 7.48511 42.3225 7.51746 42.3333 7.5516C42.3333 7.5516 42.344 7.57317 42.3764 7.59473H42.3782Z" fill="white"/>
<path d="M43.0278 7.58209C43.0278 7.58209 42.8733 7.63781 42.7079 7.64859C42.7079 7.64859 42.3449 7.5174 42.2784 6.97647L42.3665 6.96569C42.3665 6.96569 42.4438 7.28557 42.6199 7.42755C42.6199 7.42755 42.7637 7.55873 43.0153 7.54795L43.026 7.5803L43.0278 7.58209Z" fill="white"/>
<path d="M43.1813 7.3736C43.1813 7.3736 43.1705 7.51737 42.9387 7.51737C42.9387 7.51737 42.6961 7.4958 42.5649 7.31969C42.5649 7.31969 42.4552 7.16514 42.3995 6.95667L42.466 6.94589C42.466 6.94589 42.4984 7.05551 42.5541 7.12201C42.5541 7.12201 42.5972 7.15435 42.5864 7.10044C42.5864 7.10044 42.5307 7.01238 42.4984 6.93511L42.5649 6.91354C42.5649 6.91354 42.6637 7.12201 42.8183 7.23343L42.7751 7.27656C42.7751 7.27656 42.7643 7.3089 42.7967 7.29812C42.7967 7.29812 42.8524 7.19928 43.0052 7.21006C43.0052 7.21006 43.1921 7.22085 43.1813 7.3754V7.3736Z" fill="white"/>
<path d="M41.9601 7.715C41.9601 7.715 42.0715 7.715 42.2027 7.61616C42.2027 7.61616 42.3231 7.53889 42.3339 7.36277C42.3339 7.36277 42.3339 7.29628 42.2908 7.17587C42.2908 7.17587 42.2476 7.07703 42.2476 6.98898H42.1164C42.1164 6.98898 42.1937 7.12016 42.1937 7.26393C42.1937 7.26393 42.2045 7.50654 41.9619 7.5946V7.715H41.9601Z" fill="white"/>
<path d="M41.9539 6.95497V6.6908C41.9539 6.6908 42.2792 6.70158 42.5308 6.60274C42.5308 6.60274 42.662 6.53625 42.7177 6.64587C42.7177 6.64587 42.7842 6.74471 42.662 6.83277C42.662 6.83277 42.414 6.95318 41.9521 6.95318L41.9539 6.95497Z" fill="white"/>
<path d="M42.036 6.99993H42.0791C42.0791 6.99993 42.1456 7.10955 42.1456 7.27488C42.1456 7.27488 42.1348 7.48335 41.9569 7.56062V7.48335C41.9569 7.48335 42.1007 7.40607 42.1007 7.22996C42.1007 7.22996 42.1007 7.10955 42.0342 6.99813L42.036 6.99993Z" fill="white"/>
<path d="M41.9601 7.45099V7.30723C41.9601 7.30723 41.9924 7.30723 41.9924 7.2641V6.99992C41.9924 6.99992 42.0481 7.08798 42.0589 7.23175C42.0589 7.23175 42.0535 7.3863 41.9601 7.45099Z" fill="white"/>
<path d="M41.955 10.5815V10.3839L41.8669 10.2401H41.7897L41.955 10.5815Z" fill="white"/>
<path d="M41.8057 10.2023L41.9584 10.0801V10.1358L41.8704 10.2023H41.8057Z" fill="white"/>
<path d="M41.9595 10.3335L41.8948 10.2239L41.9595 10.1808V10.3335Z" fill="white"/>
<path d="M41.824 10.1411C41.824 10.1411 41.8671 9.84455 41.8455 9.53545C41.8455 9.53545 41.8455 9.17244 41.7467 8.95139H41.8348L41.9336 9.08258V10.0512L41.824 10.1393V10.1411Z" fill="white"/>
<path d="M41.9605 9.05743L41.8724 8.94781H41.9605V9.05743Z" fill="white"/>
<path d="M41.9605 8.80411L41.8724 8.91373H41.9605V8.80411Z" fill="white"/>
<path d="M41.7404 8.91378H41.8284L41.938 8.77002V8.05477H41.7511C41.7511 8.05477 41.8176 8.24167 41.8069 8.60468C41.8069 8.60468 41.7961 8.80236 41.7404 8.91199V8.91378Z" fill="white"/>
<path d="M41.4325 10.5868C41.4325 10.5868 41.5098 10.3999 41.4325 10.2238C41.4325 10.2238 41.3553 10.08 41.1576 10.0045L41.2133 9.91647C41.2133 9.91647 41.5763 10.1034 41.5979 10.3118C41.5979 10.3118 41.6302 10.5095 41.4325 10.5868Z" fill="white"/>
<path d="M41.124 9.85004C41.124 9.85004 41.212 9.90575 41.1563 9.95966C41.1563 9.95966 41.0575 10.0369 40.9371 9.95966C40.9371 9.95966 40.8706 9.90395 40.9479 9.85004C40.9479 9.85004 40.991 9.77276 40.9155 9.81769C40.9155 9.81769 40.8059 9.90575 40.6621 9.8069C40.6621 9.8069 40.5184 9.69728 40.619 9.57508C40.619 9.57508 40.6621 9.55351 40.7178 9.55351C40.7178 9.55351 40.7502 9.51038 40.6855 9.51038C40.6855 9.51038 40.477 9.57688 40.344 9.33427C40.344 9.33427 40.2344 9.12581 40.4986 9.05931C40.4986 9.05931 40.5651 9.03775 40.4986 9.01618C40.4986 9.01618 40.1913 9.08267 40.1571 8.77357C40.1571 8.77357 40.1248 8.55433 40.3764 8.5094C40.3764 8.5094 40.4429 8.47705 40.3764 8.46627C40.3764 8.46627 40.0134 8.47705 40.0242 8.05833C40.0242 8.05833 40.0349 7.77259 40.2991 7.71688C40.2991 7.71688 40.5525 7.68453 40.619 7.94871C40.619 7.94871 40.3225 7.86065 40.3225 8.10326C40.3225 8.10326 40.3225 8.23445 40.5202 8.24703C40.5202 8.24703 40.6513 8.25781 40.7843 8.03856L40.8508 7.91816L40.982 7.96129C40.982 7.96129 40.6621 8.34587 40.6855 8.83108C40.6855 8.83108 40.6531 9.39178 41.1258 9.85363L41.124 9.85004Z" fill="white"/>
<path d="M41.6182 10.2561C41.6182 10.2561 41.5625 10.0799 41.3648 9.97032C41.3648 9.97032 40.9569 9.80499 40.7934 9.23351C40.7934 9.23351 40.5292 8.63868 41.0126 7.97914L41.1564 8.00071C41.1564 8.00071 40.8922 8.24331 40.8922 8.67282C40.8922 8.67282 40.8814 9.15624 41.2552 9.15624C41.2552 9.15624 41.4205 9.16702 41.487 8.96934C41.487 8.96934 41.5302 8.83815 41.4762 8.71595C41.4762 8.71595 41.6739 8.77166 41.6847 9.00169C41.6847 9.00169 41.6955 9.29821 41.4313 9.3647C41.4313 9.3647 41.124 9.37548 41.1564 9.57317C41.1564 9.57317 41.1456 9.68279 41.3756 9.88047C41.3756 9.88047 41.5949 10.0458 41.6182 10.2543V10.2561Z" fill="white"/>
<path d="M40.9363 8.61724C40.9363 8.61724 40.9363 8.24344 41.2112 8.00083L41.3766 8.0224C41.3766 8.0224 41.0243 8.23086 40.9363 8.61724Z" fill="white"/>
<path d="M41.9607 8.03506C41.9607 8.03506 41.2904 8.01349 40.807 7.88051C40.807 7.88051 40.6758 7.8248 40.7189 7.70439C40.7189 7.70439 40.7405 7.59477 40.8842 7.61634C40.8842 7.61634 41.4234 7.7601 41.9607 7.7601V8.03506Z" fill="white"/>
<path d="M41.8179 7.71508L41.6867 7.63781L41.5986 7.7043C41.5986 7.7043 41.719 7.71508 41.8179 7.71508Z" fill="white"/>
<path d="M41.4439 7.52814C41.4439 7.52814 41.4655 7.6162 41.5212 7.63777C41.5212 7.63777 41.5536 7.62699 41.6093 7.57128L41.6758 7.62699C41.6758 7.62699 41.5985 7.69348 41.5104 7.70426C41.5104 7.70426 41.4331 7.6827 41.39 7.58386L41.4457 7.52814H41.4439Z" fill="white"/>
<path d="M41.4312 7.69346L41.3647 7.59462L41.2659 7.66111C41.2659 7.66111 41.3539 7.68268 41.4312 7.69346Z" fill="white"/>
<path d="M41.5424 7.59473C41.5424 7.59473 41.5208 7.60552 41.4992 7.58395C41.4992 7.58395 41.4777 7.5516 41.4777 7.49589C41.4777 7.49589 41.4777 7.47433 41.4992 7.45276L41.5549 7.37549C41.5549 7.37549 41.5334 7.41862 41.5657 7.48511C41.5657 7.48511 41.5981 7.51746 41.5873 7.5516C41.5873 7.5516 41.5765 7.57317 41.5442 7.59473H41.5424Z" fill="white"/>
<path d="M40.8933 7.58209C40.8933 7.58209 41.0479 7.63781 41.2132 7.64859C41.2132 7.64859 41.5762 7.5174 41.6427 6.97647L41.5546 6.96569C41.5546 6.96569 41.4774 7.28557 41.3013 7.42755C41.3013 7.42755 41.1575 7.55873 40.9059 7.54795L40.8951 7.5803L40.8933 7.58209Z" fill="white"/>
<path d="M40.7392 7.3736C40.7392 7.3736 40.75 7.51737 40.9818 7.51737C40.9818 7.51737 41.2244 7.4958 41.3556 7.31969C41.3556 7.31969 41.4652 7.16514 41.521 6.95667L41.4545 6.94589C41.4545 6.94589 41.4221 7.05551 41.3664 7.12201C41.3664 7.12201 41.3233 7.15435 41.3341 7.10044C41.3341 7.10044 41.3898 7.01238 41.4221 6.93511L41.3556 6.91354C41.3556 6.91354 41.2568 7.12201 41.1022 7.23343L41.1454 7.27656C41.1454 7.27656 41.1561 7.3089 41.1238 7.29812C41.1238 7.29812 41.0681 7.19928 40.9153 7.21006C40.9153 7.21006 40.7284 7.22085 40.7392 7.3754V7.3736Z" fill="white"/>
<path d="M41.9595 7.715C41.9595 7.715 41.8499 7.715 41.7187 7.61616C41.7187 7.61616 41.5983 7.53889 41.5875 7.36277C41.5875 7.36277 41.5875 7.29628 41.6307 7.17587C41.6307 7.17587 41.6738 7.07703 41.6738 6.98898H41.805C41.805 6.98898 41.7277 7.12016 41.7277 7.26393C41.7277 7.26393 41.7169 7.50654 41.9577 7.5946V7.715H41.9595Z" fill="white"/>
<path d="M41.9649 6.95497V6.6908C41.9649 6.6908 41.6415 6.70158 41.3881 6.60274C41.3881 6.60274 41.2569 6.53625 41.2012 6.64587C41.2012 6.64587 41.1347 6.74471 41.2569 6.83277C41.2569 6.83277 41.5049 6.95318 41.9667 6.95318L41.9649 6.95497Z" fill="white"/>
<path d="M41.8834 6.99992H41.8403C41.8403 6.99992 41.7738 7.10955 41.7738 7.27488C41.7738 7.27488 41.7846 7.48334 41.9589 7.56242V7.48514C41.9589 7.48514 41.8169 7.40786 41.8169 7.23175C41.8169 7.23175 41.8169 7.11134 41.8834 6.99992Z" fill="white"/>
<path d="M41.962 7.45099V7.30723C41.962 7.30723 41.9278 7.30723 41.9278 7.2641V6.99992C41.9278 6.99992 41.8721 7.08798 41.8613 7.23175C41.8613 7.23175 41.8721 7.3863 41.9602 7.45279L41.962 7.45099Z" fill="white"/>
<path d="M36.6676 5.30503H36.8671L37.0091 5.39309V5.47036L36.6676 5.30503Z" fill="white"/>
<path d="M37.0498 5.45421L37.1702 5.29966H37.1145L37.0498 5.38772V5.45421Z" fill="white"/>
<path d="M36.916 5.29966L37.0256 5.36615L37.0706 5.29966H36.916Z" fill="white"/>
<path d="M37.1086 5.43615C37.1086 5.43615 37.4052 5.39302 37.7143 5.41458C37.7143 5.41458 38.0773 5.41458 38.2983 5.51342V5.42536L38.1671 5.32652H37.1985L37.1104 5.43615H37.1086Z" fill="white"/>
<path d="M38.193 5.29966L38.3044 5.38772V5.29966H38.193Z" fill="white"/>
<path d="M38.4459 5.29966L38.3363 5.38772V5.29966H38.4459Z" fill="white"/>
<path d="M38.3363 5.51883V5.43077L38.4801 5.32115H39.1953V5.50805C39.1953 5.50805 39.0084 5.44156 38.6454 5.45234C38.6454 5.45234 38.4477 5.46312 38.3381 5.51883H38.3363Z" fill="white"/>
<path d="M36.6628 5.82799C36.6628 5.82799 36.8497 5.75071 37.0259 5.82799C37.0259 5.82799 37.1696 5.90526 37.2451 6.10295L37.3332 6.04724C37.3332 6.04724 37.1463 5.68422 36.9378 5.66266C36.9378 5.66266 36.7401 5.63031 36.6628 5.82799Z" fill="white"/>
<path d="M37.4007 6.13525C37.4007 6.13525 37.345 6.04719 37.2911 6.1029C37.2911 6.1029 37.2138 6.20174 37.2911 6.32215C37.2911 6.32215 37.3468 6.38864 37.4007 6.31136C37.4007 6.31136 37.478 6.26823 37.433 6.34371C37.433 6.34371 37.345 6.45333 37.4438 6.5971C37.4438 6.5971 37.5534 6.74087 37.6756 6.64023C37.6756 6.64023 37.6972 6.5971 37.6972 6.54139C37.6972 6.54139 37.7403 6.50904 37.7403 6.57374C37.7403 6.57374 37.6738 6.7822 37.9164 6.91519C37.9164 6.91519 38.1249 7.02481 38.1914 6.76064C38.1914 6.76064 38.213 6.69414 38.2345 6.76064C38.2345 6.76064 38.168 7.06794 38.4771 7.10209C38.4771 7.10209 38.6964 7.13443 38.7413 6.88284C38.7413 6.88284 38.7737 6.81635 38.7844 6.88284C38.7844 6.88284 38.7737 7.24585 39.1924 7.23507C39.1924 7.23507 39.4781 7.22429 39.5338 6.96011C39.5338 6.96011 39.5662 6.70672 39.302 6.64023C39.302 6.64023 39.3901 6.93675 39.1475 6.93675C39.1475 6.93675 39.0163 6.93675 39.0037 6.73907C39.0037 6.73907 38.9929 6.60788 39.2122 6.4749L39.3326 6.40841L39.2894 6.27722C39.2894 6.27722 38.9049 6.5971 38.4196 6.57374C38.4196 6.57374 37.8589 6.60609 37.3971 6.13345L37.4007 6.13525Z" fill="white"/>
<path d="M36.9924 5.64107C36.9924 5.64107 37.1685 5.69678 37.2782 5.89446C37.2782 5.89446 37.4435 6.3024 38.015 6.46594C38.015 6.46594 38.6098 6.73011 39.2694 6.24669L39.2478 6.10292C39.2478 6.10292 39.0052 6.3671 38.5757 6.3671C38.5757 6.3671 38.0923 6.37788 38.0923 6.00408C38.0923 6.00408 38.0815 5.83875 38.2792 5.77226C38.2792 5.77226 38.4103 5.72913 38.5325 5.78304C38.5325 5.78304 38.4768 5.58536 38.2468 5.57458C38.2468 5.57458 37.9503 5.5638 37.8838 5.82797C37.8838 5.82797 37.873 6.13527 37.6753 6.10292C37.6753 6.10292 37.5657 6.11371 37.368 5.88368C37.368 5.88368 37.2027 5.66443 36.9942 5.64107H36.9924Z" fill="white"/>
<path d="M38.6324 6.3223C38.6324 6.3223 39.0062 6.3223 39.2488 6.04734L39.2273 5.88201C39.2273 5.88201 39.0188 6.23424 38.6324 6.3223Z" fill="white"/>
<path d="M39.2168 5.29787C39.2168 5.29787 39.2384 5.96999 39.3713 6.4534C39.3713 6.4534 39.4271 6.58459 39.5475 6.54146C39.5475 6.54146 39.6571 6.5199 39.6355 6.37613C39.6355 6.37613 39.4918 5.837 39.4918 5.29607H39.2168V5.29787Z" fill="white"/>
<path d="M39.5367 5.44157L39.614 5.57275L39.5475 5.66081C39.5475 5.66081 39.5367 5.54041 39.5367 5.44157Z" fill="white"/>
<path d="M39.7241 5.81709C39.7241 5.81709 39.636 5.79553 39.6145 5.73982C39.6145 5.73982 39.6252 5.70747 39.681 5.65176L39.6253 5.58527C39.6253 5.58527 39.5588 5.66254 39.548 5.7506C39.548 5.7506 39.5695 5.82787 39.6684 5.871L39.7241 5.81529V5.81709Z" fill="white"/>
<path d="M39.5575 5.82808L39.6563 5.89457L39.5898 5.99341C39.5898 5.99341 39.5683 5.90535 39.5575 5.82808Z" fill="white"/>
<path d="M39.6574 5.71658C39.6574 5.71658 39.6466 5.73814 39.6681 5.75971C39.6681 5.75971 39.7005 5.78127 39.7562 5.78127C39.7562 5.78127 39.7778 5.78127 39.7993 5.75971L39.8766 5.704C39.8766 5.704 39.8335 5.72556 39.767 5.69321C39.767 5.69321 39.7346 5.66087 39.7005 5.67165C39.7005 5.67165 39.6789 5.68243 39.6574 5.71478V5.71658Z" fill="white"/>
<path d="M39.667 6.3671C39.667 6.3671 39.6112 6.21255 39.6005 6.04721C39.6005 6.04721 39.7317 5.6842 40.2726 5.61771L40.2834 5.70576C40.2834 5.70576 39.9635 5.78304 39.8215 5.95915C39.8215 5.95915 39.6903 6.10292 39.7011 6.35452L39.6688 6.3653L39.667 6.3671Z" fill="white"/>
<path d="M39.8748 6.51985C39.8748 6.51985 39.7311 6.50907 39.7311 6.27724C39.7311 6.27724 39.7526 6.03463 39.9288 5.90345C39.9288 5.90345 40.0833 5.79382 40.2918 5.73811L40.3026 5.80461C40.3026 5.80461 40.1929 5.83695 40.1264 5.89266C40.1264 5.89266 40.0941 5.93579 40.148 5.92501C40.148 5.92501 40.2361 5.8693 40.3133 5.83695L40.3349 5.90345C40.3349 5.90345 40.1264 6.00229 40.015 6.15684L39.9719 6.11371C39.9719 6.11371 39.9395 6.10292 39.9503 6.13527C39.9503 6.13527 40.0492 6.19098 40.0384 6.34373C40.0384 6.34373 40.0276 6.53063 39.8731 6.51985H39.8748Z" fill="white"/>
<path d="M39.5367 5.29787C39.5367 5.29787 39.5367 5.40929 39.6356 5.54047C39.6356 5.54047 39.7129 5.66088 39.889 5.67166C39.889 5.67166 39.9555 5.67166 40.0759 5.62853C40.0759 5.62853 40.1747 5.5854 40.2628 5.5854V5.45421C40.2628 5.45421 40.1316 5.53149 39.9878 5.53149C39.9878 5.53149 39.7452 5.54227 39.6571 5.29966H39.5367V5.29787Z" fill="white"/>
<path d="M40.2947 5.29409H40.5589C40.5589 5.29409 40.5481 5.61937 40.6469 5.87096C40.6469 5.87096 40.7134 6.00215 40.6038 6.05786C40.6038 6.05786 40.5049 6.12435 40.4169 6.00215C40.4169 6.00215 40.2965 5.75415 40.2965 5.2923L40.2947 5.29409Z" fill="white"/>
<path d="M40.2504 5.37694V5.42007C40.2504 5.42007 40.1408 5.48656 39.9754 5.48656C39.9754 5.48656 39.767 5.47578 39.6897 5.29787H39.767C39.767 5.29787 39.8442 5.44163 40.0204 5.44163C40.0204 5.44163 40.1408 5.44163 40.2522 5.37514L40.2504 5.37694Z" fill="white"/>
<path d="M39.798 5.29966H39.9417C39.9417 5.29966 39.9417 5.33201 39.9849 5.33201H40.249C40.249 5.33201 40.161 5.38772 40.0172 5.3985C40.0172 5.3985 39.8627 5.39311 39.798 5.29966Z" fill="white"/>
<path d="M36.6676 5.29422H36.8671L37.0091 5.20617V5.12889L36.6676 5.29422Z" fill="white"/>
<path d="M37.0498 5.14501L37.1702 5.29956H37.1145L37.0498 5.2115V5.14501Z" fill="white"/>
<path d="M36.916 5.29968L37.0256 5.23318L37.0706 5.29968H36.916Z" fill="white"/>
<path d="M37.1086 5.16118C37.1086 5.16118 37.4052 5.20431 37.7143 5.18275C37.7143 5.18275 38.0773 5.18275 38.2983 5.08391V5.17197L38.1671 5.27081H37.1985L37.1104 5.16118H37.1086Z" fill="white"/>
<path d="M38.193 5.29954L38.3044 5.21149V5.29954H38.193Z" fill="white"/>
<path d="M38.4459 5.29954L38.3363 5.21149V5.29954H38.4459Z" fill="white"/>
<path d="M38.3363 5.07854V5.16659L38.4801 5.27622H39.1953V5.08932C39.1953 5.08932 39.0084 5.15581 38.6454 5.14503C38.6454 5.14503 38.4477 5.13425 38.3381 5.07854H38.3363Z" fill="white"/>
<path d="M36.6628 4.77114C36.6628 4.77114 36.8497 4.84842 37.0259 4.77114C37.0259 4.77114 37.1696 4.69387 37.2451 4.49619L37.3332 4.5519C37.3332 4.5519 37.1463 4.91491 36.9378 4.93647C36.9378 4.93647 36.7401 4.96882 36.6628 4.77114Z" fill="white"/>
<path d="M37.4007 4.46397C37.4007 4.46397 37.345 4.55203 37.2911 4.49632C37.2911 4.49632 37.2138 4.39748 37.2911 4.27708C37.2911 4.27708 37.3468 4.21058 37.4007 4.28786C37.4007 4.28786 37.478 4.33099 37.433 4.25551C37.433 4.25551 37.345 4.14589 37.4438 4.00212C37.4438 4.00212 37.5534 3.85835 37.6756 3.95899C37.6756 3.95899 37.6972 4.00212 37.6972 4.05783C37.6972 4.05783 37.7403 4.09018 37.7403 4.02548C37.7403 4.02548 37.6738 3.81702 37.9164 3.68403C37.9164 3.68403 38.1249 3.57441 38.1914 3.83858C38.1914 3.83858 38.213 3.90508 38.2345 3.83858C38.2345 3.83858 38.168 3.53128 38.4771 3.49714C38.4771 3.49714 38.6964 3.46479 38.7413 3.71638C38.7413 3.71638 38.7737 3.78287 38.7844 3.71638C38.7844 3.71638 38.7737 3.35337 39.1924 3.36415C39.1924 3.36415 39.4781 3.37493 39.5338 3.63911C39.5338 3.63911 39.5662 3.8925 39.302 3.95899C39.302 3.95899 39.3901 3.66247 39.1475 3.66247C39.1475 3.66247 39.0163 3.66247 39.0037 3.86015C39.0037 3.86015 38.9929 3.99134 39.2122 4.12432L39.3326 4.19081L39.2894 4.322C39.2894 4.322 38.9049 4.00212 38.4196 4.02548C38.4196 4.02548 37.8589 3.99313 37.3971 4.46577L37.4007 4.46397Z" fill="white"/>
<path d="M36.9924 4.95822C36.9924 4.95822 37.1685 4.90251 37.2782 4.70483C37.2782 4.70483 37.4435 4.29688 38.015 4.13335C38.015 4.13335 38.6098 3.86918 39.2694 4.35259L39.2478 4.49636C39.2478 4.49636 39.0052 4.23219 38.5757 4.23219C38.5757 4.23219 38.0923 4.22141 38.0923 4.5952C38.0923 4.5952 38.0815 4.76054 38.2792 4.82703C38.2792 4.82703 38.4103 4.87016 38.5325 4.81625C38.5325 4.81625 38.4768 5.01393 38.2468 5.02471C38.2468 5.02471 37.9503 5.03549 37.8838 4.77132C37.8838 4.77132 37.873 4.46401 37.6753 4.49636C37.6753 4.49636 37.5657 4.48558 37.368 4.71561C37.368 4.71561 37.2027 4.93485 36.9942 4.95822H36.9924Z" fill="white"/>
<path d="M38.6324 4.27526C38.6324 4.27526 39.0062 4.27526 39.2488 4.55022L39.2273 4.71555C39.2273 4.71555 39.0188 4.36332 38.6324 4.27526Z" fill="white"/>
<path d="M39.2168 5.29788C39.2168 5.29788 39.2384 4.62756 39.3713 4.14414C39.3713 4.14414 39.4271 4.01295 39.5475 4.05608C39.5475 4.05608 39.6571 4.07765 39.6355 4.22142C39.6355 4.22142 39.4918 4.76054 39.4918 5.29788H39.2168Z" fill="white"/>
<path d="M39.5367 5.15588L39.614 5.02469L39.5475 4.93663C39.5475 4.93663 39.5367 5.05704 39.5367 5.15588Z" fill="white"/>
<path d="M39.7241 4.78216C39.7241 4.78216 39.636 4.80373 39.6145 4.85944C39.6145 4.85944 39.6252 4.89178 39.681 4.94749L39.6253 5.01399C39.6253 5.01399 39.5588 4.93671 39.548 4.84865C39.548 4.84865 39.5695 4.77138 39.6684 4.72825L39.7241 4.78396V4.78216Z" fill="white"/>
<path d="M39.5575 4.77138L39.6563 4.70489L39.5898 4.60605C39.5898 4.60605 39.5683 4.69411 39.5575 4.77138Z" fill="white"/>
<path d="M39.6574 4.88092C39.6574 4.88092 39.6466 4.85935 39.6681 4.83779C39.6681 4.83779 39.7005 4.81622 39.7562 4.81622C39.7562 4.81622 39.7778 4.81622 39.7993 4.83779L39.8766 4.8935C39.8766 4.8935 39.8335 4.87193 39.767 4.90428C39.767 4.90428 39.7346 4.93663 39.7005 4.92585C39.7005 4.92585 39.6789 4.91506 39.6574 4.88272V4.88092Z" fill="white"/>
<path d="M39.667 4.23227C39.667 4.23227 39.6112 4.38682 39.6005 4.55215C39.6005 4.55215 39.7317 4.91517 40.2726 4.98166L40.2834 4.8936C40.2834 4.8936 39.9635 4.81633 39.8215 4.64021C39.8215 4.64021 39.6903 4.49644 39.7011 4.24485L39.6688 4.23407L39.667 4.23227Z" fill="white"/>
<path d="M39.8748 4.07768C39.8748 4.07768 39.7311 4.08846 39.7311 4.32029C39.7311 4.32029 39.7526 4.5629 39.9288 4.69409C39.9288 4.69409 40.0833 4.80371 40.2918 4.85942L40.3026 4.79293C40.3026 4.79293 40.1929 4.76058 40.1264 4.70487C40.1264 4.70487 40.0941 4.66174 40.148 4.67252C40.148 4.67252 40.2361 4.72823 40.3133 4.76058L40.3349 4.69409C40.3349 4.69409 40.1264 4.59525 40.015 4.44069L39.9719 4.48383C39.9719 4.48383 39.9395 4.49461 39.9503 4.46226C39.9503 4.46226 40.0492 4.40655 40.0384 4.2538C40.0384 4.2538 40.0276 4.0669 39.8731 4.07768H39.8748Z" fill="white"/>
<path d="M39.5367 5.29788C39.5367 5.29788 39.5367 5.18826 39.6356 5.05707C39.6356 5.05707 39.7129 4.93666 39.889 4.92588C39.889 4.92588 39.9555 4.92588 40.0759 4.96901C40.0759 4.96901 40.1747 5.01214 40.2628 5.01214V5.14333C40.2628 5.14333 40.1316 5.06605 39.9878 5.06605C39.9878 5.06605 39.7452 5.05527 39.6571 5.29608H39.5367V5.29788Z" fill="white"/>
<path d="M40.2947 5.30487H40.5589C40.5589 5.30487 40.5481 4.98139 40.6469 4.728C40.6469 4.728 40.7134 4.59682 40.6038 4.54111C40.6038 4.54111 40.5049 4.47461 40.4169 4.59682C40.4169 4.59682 40.2965 4.84482 40.2965 5.30667L40.2947 5.30487Z" fill="white"/>
<path d="M40.2506 5.22239V5.17926C40.2506 5.17926 40.141 5.11277 39.9756 5.11277C39.9756 5.11277 39.7672 5.12355 39.6881 5.29787H39.7654C39.7654 5.29787 39.8427 5.1559 40.0188 5.1559C40.0188 5.1559 40.1392 5.1559 40.2506 5.22239Z" fill="white"/>
<path d="M39.7998 5.29959H39.9435C39.9435 5.29959 39.9435 5.26544 39.9867 5.26544H40.2508C40.2508 5.26544 40.1628 5.20973 40.019 5.19895C40.019 5.19895 39.8645 5.20973 39.798 5.29779L39.7998 5.29959Z" fill="white"/>
<path d="M41.9577 6.43001C42.6187 6.43001 43.1546 5.89416 43.1546 5.23314C43.1546 4.57213 42.6187 4.03628 41.9577 4.03628C41.2967 4.03628 40.7609 4.57213 40.7609 5.23314C40.7609 5.89416 41.2967 6.43001 41.9577 6.43001Z" fill="white"/>
</svg>
